HIERARCHY
ROOT hip
{
	OFFSET 0.000000 0.000000 0.000000 
	CHANNELS 6 Xposition Yposition Zposition Xrotation Zrotation Yrotation
	JOINT abdomen
	{
		OFFSET 0.000000 3.402643 0.000000 
		CHANNELS 3 Xrotation Zrotation Yrotation
		JOINT chest
		{
			OFFSET 0.000000 8.438565 -0.680529 
			CHANNELS 3 Xrotation Zrotation Yrotation
			JOINT neck
			{
				OFFSET 0.000000 10.207942 -0.272212 
				CHANNELS 3 Xrotation Zrotation Yrotation
				JOINT head
				{
					OFFSET 0.000000 3.130431 0.000000 
					CHANNELS 3 Xrotation Zrotation Yrotation
					End Site
					{
						OFFSET 0.000000 3.130435 0.000000 
					}
				}
			}
			JOINT lCollar
			{
				OFFSET 3.470700 6.669187 -0.816635 
				CHANNELS 3 Yrotation Zrotation Xrotation
				JOINT lShldr
				{
					OFFSET 3.198488 0.000000 0.000000 
					CHANNELS 3 Zrotation Yrotation Xrotation
					JOINT lForeArm
					{
						OFFSET 10.139888 0.000000 0.000000 
						CHANNELS 3 Yrotation Zrotation Xrotation
						JOINT lHand
						{
							OFFSET 8.370511 0.000000 0.000000 
							CHANNELS 3 Zrotation Yrotation Xrotation
							End Site
							{
								OFFSET 4.083176 0.000000 0.000000 
							}
						}
					}
				}
			}
			JOINT rCollar
			{
				OFFSET -3.470700 6.669187 -0.816635 
				CHANNELS 3 Yrotation Zrotation Xrotation
				JOINT rShldr
				{
					OFFSET -3.198488 0.000000 0.000000 
					CHANNELS 3 Zrotation Yrotation Xrotation
					JOINT rForeArm
					{
						OFFSET -10.139888 0.000000 0.000000 
						CHANNELS 3 Yrotation Zrotation Xrotation
						JOINT rHand
						{
							OFFSET -8.370511 0.000000 0.000000 
							CHANNELS 3 Zrotation Yrotation Xrotation
							End Site
							{
								OFFSET -4.083176 0.000000 0.000000 
							}
						}
					}
				}
			}
		}
	}
	JOINT lThigh
	{
		OFFSET 5.308129 -1.633274 1.361059 
		CHANNELS 3 Xrotation Zrotation Yrotation
		JOINT lShin
		{
			OFFSET -2.041588 -20.007561 0.000000 
			CHANNELS 3 Xrotation Zrotation Yrotation
			JOINT lFoot
			{
				OFFSET 0.000000 -19.190928 -1.224953 
				CHANNELS 3 Xrotation Yrotation Zrotation
				End Site
				{
					OFFSET 0.000000 -2.449906 4.627600 
				}
			}
		}
	}
	JOINT rThigh
	{
		OFFSET -5.308129 -1.633274 1.361059 
		CHANNELS 3 Xrotation Zrotation Yrotation
		JOINT rShin
		{
			OFFSET 2.041588 -20.007561 0.000000 
			CHANNELS 3 Xrotation Zrotation Yrotation
			JOINT rFoot
			{
				OFFSET 0.000000 -19.190928 -1.224953 
				CHANNELS 3 Xrotation Yrotation Zrotation
				End Site
				{
					OFFSET 0.000000 -2.449906 4.627600 
				}
			}
		}
	}
}
MOTION
Frames: 10
Frame Time: 0.016667
33.090462 41.631920 210.712616 3.301140 -0.838450 -129.550003 -20.384800 4.158710 -0.481083 15.229700 5.455000 0.049234 15.086998 -10.641391 4.385156 13.844200 7.217140 3.026450 2.000000 -2.000000 0.000000 91.151901 173.613998 -4.517170 34.033600 -0.328147 0.076576 0.052682 -0.050173 -155.143997 -2.000000 2.000000 0.000000 85.569000 -7.258110 160.070999 -26.514000 0.337185 0.061035 -0.055185 0.015863 -142.595993 -6.573772 -0.381865 0.781795 31.662001 3.613454 2.089896 -15.453231 3.589119 -0.253397 -10.783946 2.133049 -4.071957 34.027729 -2.853136 -2.437638 -16.804876 -0.990784 1.040284 
33.067879 41.653957 210.578949 3.242570 -0.877499 -129.121994 -20.377199 4.330460 -0.189875 15.260100 5.348290 0.218135 14.611839 -11.557567 5.445065 13.878300 6.994920 3.549840 2.000000 -2.000000 0.000000 90.878601 173.684006 -5.268960 33.203499 -0.329244 0.074927 0.052069 -0.048273 -154.431000 -2.000000 2.000000 0.000000 85.403000 -7.345980 160.061005 -26.631201 0.337060 0.061285 -0.055221 0.016217 -142.723007 -6.331289 -0.418007 0.421334 31.225767 3.631070 2.048888 -15.191843 3.750846 -0.218709 -10.538285 2.528835 -2.990168 33.887047 -2.885267 -2.419895 -16.867205 -2.406769 0.635530 
33.045189 41.675877 210.443024 3.184000 -0.916552 -128.703003 -20.359301 4.499040 0.092883 15.300100 5.251380 0.386930 14.097638 -12.470721 6.524441 13.902700 6.772970 4.080370 2.000000 -2.000000 0.000000 90.615196 173.755005 -6.030510 32.373402 -0.330316 0.073262 0.051480 -0.046366 -153.718994 -2.000000 2.000000 0.000000 85.237000 -7.433830 160.041000 -26.748301 0.336935 0.061535 -0.055260 0.016598 -142.858994 -6.097321 -0.461116 0.061227 30.778482 3.658646 2.010299 -14.918675 3.900896 -0.169444 -10.350702 2.922813 -1.892429 33.768383 -2.900123 -2.425317 -16.902802 -3.803600 0.229687 
33.053837 41.679874 210.247559 3.125380 -0.897101 -127.901001 -20.330200 4.593540 0.289298 15.418000 5.232910 0.506820 13.706590 -12.932334 7.349393 13.860100 6.629530 4.490360 2.000000 -2.000000 0.000000 90.439796 173.981995 -7.249650 31.465200 -0.331462 0.071422 0.050638 -0.043478 -152.643997 -2.000000 2.000000 0.000000 85.431900 -7.618150 159.494003 -27.119400 0.336534 0.062325 -0.055048 0.014420 -142.078003 -5.981650 -0.305318 -0.395666 30.422138 3.669292 1.986564 -14.721091 3.593088 -0.231233 -10.135029 3.261240 -1.617257 33.724171 -2.940545 -2.389123 -17.113335 -4.938232 -0.094939 
33.062374 41.683865 210.053192 3.057010 -0.887408 -127.108002 -20.300900 4.684610 0.476587 15.535800 5.214400 0.616867 13.316291 -13.406477 8.167377 13.807600 6.476630 4.886910 2.000000 -2.000000 0.000000 -89.735497 5.790410 171.520004 30.547199 -0.332590 0.069545 0.049857 -0.040601 -151.580002 -2.000000 2.000000 0.000000 85.626801 -7.792690 158.936005 -27.490499 0.336128 0.063111 -0.054867 0.012240 -141.296997 -5.843400 -0.156858 -0.844347 30.046122 3.686210 1.983319 -14.489398 3.297100 -0.319711 -9.848512 3.582652 -1.294423 33.527996 -2.932955 -2.370310 -17.211176 -6.066335 -0.447691 
33.066307 41.683601 209.907166 3.047160 -0.780146 -126.339996 -20.415800 4.719280 0.735765 15.391300 4.892260 0.760246 13.026247 -13.575161 8.800499 13.707900 6.411340 5.186730 2.000000 -2.000000 0.000000 -89.598701 6.043440 171.149002 30.312799 -0.332873 0.069063 0.049658 -0.039834 -151.296997 -2.000000 2.000000 0.000000 85.676102 -8.008530 159.384995 -27.636999 0.335966 0.063421 -0.055156 0.015564 -142.488007 -5.963612 0.005522 -1.371742 30.015928 3.688752 1.974509 -14.466739 3.200956 -0.338447 -9.765492 3.760744 -1.688620 33.428680 -2.950258 -2.376537 -17.250721 -6.456152 -0.592571 
33.070240 41.683346 209.763382 3.027560 -0.682640 -125.564003 -20.520500 4.750820 0.986678 15.246700 4.579960 0.893725 12.745949 -13.762618 9.419971 13.598200 6.336570 5.484090 2.000000 -2.000000 0.000000 -89.461899 6.296470 170.776993 30.068701 -0.333166 0.068559 0.049456 -0.039038 -151.003998 -2.000000 2.000000 0.000000 85.715599 -8.234150 159.834000 -27.793301 0.335792 0.063751 -0.055511 0.018853 -143.669998 -6.081291 0.153431 -1.899818 29.982986 3.708826 1.950753 -14.427805 3.142111 -0.359885 -9.736732 3.928758 -2.079205 33.428921 -2.952231 -2.386849 -17.334490 -6.850957 -0.733109 
33.083271 41.684120 209.627457 2.968900 -0.585151 -124.708000 -20.317699 4.870390 0.999838 15.618800 4.602070 0.931458 12.913678 -13.568094 10.109568 13.614800 6.654120 5.832580 2.000000 -2.000000 0.000000 -89.744797 6.031120 170.065002 29.980801 -0.333271 0.068378 0.049187 -0.037950 -150.602997 -2.000000 2.000000 0.000000 85.373802 -7.775580 160.020996 -27.881201 0.335694 0.063937 -0.055398 0.017875 -143.317993 -6.346485 0.318544 -2.339541 30.104113 3.688357 1.964056 -14.416245 2.848568 -0.417414 -9.748792 3.940524 -2.888347 33.399769 -2.949028 -2.386312 -17.421423 -6.885761 -0.790949 
33.096413 41.684772 209.492645 2.910260 -0.487652 -123.843002 -20.105101 4.990430 1.014430 15.990900 4.633750 0.958919 13.094463 -13.371637 10.808027 13.641400 6.961800 6.169870 2.000000 -2.000000 0.000000 -90.027603 5.775560 169.362000 29.883101 -0.333387 0.068176 0.048919 -0.036833 -150.192993 -2.000000 2.000000 0.000000 85.041801 -7.316990 160.197006 -27.978800 0.335585 0.064143 -0.055294 0.016924 -142.975998 -6.600203 0.464785 -2.780840 30.212120 3.697314 1.984987 -14.409471 2.567892 -0.512024 -9.712667 3.941137 -3.711592 33.271366 -2.946952 -2.357979 -17.451809 -6.959392 -0.869175 
33.114277 41.688244 209.305038 2.880960 -0.468158 -123.001999 -19.913300 5.176650 1.065820 16.303301 4.810990 1.020020 12.893926 -13.594803 10.895196 13.700200 6.950840 6.185110 2.000000 -2.000000 0.000000 -90.359398 5.657340 168.923004 29.951500 -0.333306 0.068317 0.048913 -0.036806 -150.182999 -2.000000 2.000000 0.000000 84.436798 -6.957110 160.843002 -28.125299 0.335421 0.064451 -0.055556 0.019234 -143.807007 -6.717017 0.644146 -3.153837 30.259504 3.709986 1.978251 -14.350868 2.253910 -0.581213 -9.628844 4.126921 -4.017606 33.259747 -2.970172 -2.364641 -17.646421 -7.378561 -1.009368 
